<svg width="12" height="14" viewBox="0 0 12 14" fill="none" xmlns="http://www.w3.org/2000/svg">
<path d="M1.33337 2.32642C1.33337 1.67898 1.33337 1.35526 1.46837 1.17681C1.58597 1.02135 1.76572 0.925148 1.96031 0.91353C2.18366 0.900194 2.45302 1.07976 2.99172 1.4389L10.0021 6.11248C10.4472 6.40923 10.6698 6.5576 10.7473 6.74462C10.8151 6.90812 10.8151 7.09188 10.7473 7.25538C10.6698 7.4424 10.4472 7.59077 10.0021 7.88752L2.99172 12.5611C2.45302 12.9202 2.18366 13.0998 1.96031 13.0865C1.76572 13.0749 1.58597 12.9787 1.46837 12.8232C1.33337 12.6447 1.33337 12.321 1.33337 11.6736V2.32642Z" fill="white" stroke="white" stroke-linecap="round" stroke-linejoin="round"/>
</svg>
