<svg width="110" height="110" viewBox="0 0 110 110" fill="none" xmlns="http://www.w3.org/2000/svg">
<path d="M55 108.333C84.4552 108.333 108.333 84.4552 108.333 55C108.333 25.5448 84.4552 1.66666 55 1.66666C25.5448 1.66666 1.66666 25.5448 1.66666 55C1.66666 84.4552 25.5448 108.333 55 108.333Z" stroke="white" stroke-width="2" stroke-linecap="round" stroke-linejoin="round"/>
<path d="M41.6667 38.8151C41.6667 36.2696 41.6667 34.9968 42.1986 34.2863C42.6622 33.6671 43.3718 33.2796 44.1433 33.2245C45.0287 33.1613 46.0993 33.8496 48.2406 35.2261L73.4171 51.411C75.2751 52.6054 76.2041 53.2027 76.525 53.9621C76.8054 54.6256 76.8054 55.3744 76.525 56.0379C76.2041 56.7973 75.2751 57.3946 73.4171 58.589L48.2406 74.7739C46.0993 76.1504 45.0287 76.8387 44.1433 76.7754C43.3718 76.7203 42.6622 76.3329 42.1986 75.7137C41.6667 75.0032 41.6667 73.7304 41.6667 71.1849V38.8151Z" stroke="white" stroke-width="2" stroke-linecap="round" stroke-linejoin="round"/>
</svg>
