<svg width="12" height="14" viewBox="0 0 12 14" fill="none" xmlns="http://www.w3.org/2000/svg">
<path d="M1.33331 2.32642C1.33331 1.67898 1.33331 1.35526 1.46831 1.17681C1.58591 1.02135 1.76566 0.925148 1.96025 0.91353C2.1836 0.900194 2.45296 1.07976 2.99166 1.4389L10.002 6.11248C10.4472 6.40923 10.6697 6.5576 10.7473 6.74462C10.8151 6.90812 10.8151 7.09188 10.7473 7.25538C10.6697 7.4424 10.4472 7.59077 10.002 7.88752L2.99166 12.5611C2.45296 12.9202 2.1836 13.0998 1.96025 13.0865C1.76566 13.0749 1.58591 12.9787 1.46831 12.8232C1.33331 12.6447 1.33331 12.321 1.33331 11.6736V2.32642Z" fill="#192852" stroke="#192852" stroke-linecap="round" stroke-linejoin="round"/>
</svg>
