<svg width="16" height="16" viewBox="0 0 16 16" fill="none" xmlns="http://www.w3.org/2000/svg">
<path d="M11 11C11 11.5523 11.4477 12 12 12C12.5523 12 13 11.5523 13 11V5C13 4.44772 12.5523 4 12 4C11.4477 4 11 4.44772 11 5V11Z" fill="white"/>
<path d="M7 11C7 11.5523 7.44772 12 8 12C8.55228 12 9 11.5523 9 11V10C9 9.44772 8.55228 9 8 9C7.44772 9 7 9.44772 7 10V11Z" fill="white"/>
<path d="M3 11C3 11.5523 3.44772 12 4 12C4.55228 12 5 11.5523 5 11L5 8C5 7.44772 4.55228 7 4 7C3.44772 7 3 7.44772 3 8L3 11Z" fill="white"/>
</svg>
