<svg width="42" height="43" viewBox="0 0 42 43" fill="none" xmlns="http://www.w3.org/2000/svg">
<path d="M34.3126 5.1725C30.5295 2.14561 25.8282 0.497609 20.9832 0.500003C15.272 0.500003 9.9376 2.70031 5.94948 6.69594C2.09541 10.5622 -0.0167747 15.6669 0.000100338 21.0659C0.000231546 25.0243 1.16234 28.8956 3.34229 32.1997L3.3601 32.225C3.38635 32.2634 3.41354 32.3019 3.44073 32.3394C3.46791 32.3769 3.50166 32.4256 3.50916 32.4378L3.52979 32.4753C3.63573 32.6628 3.71729 32.8916 3.6451 33.1222L1.91823 39.3716C1.84914 39.604 1.81131 39.8445 1.80573 40.0869C1.80448 40.7245 2.05613 41.3366 2.5055 41.789C2.95488 42.2413 3.56529 42.497 4.20291 42.5C4.53985 42.4889 4.87189 42.4161 5.1826 42.2853L11.5098 40.0016L11.5895 39.9706C11.7616 39.8984 11.9466 39.8617 12.1332 39.8628C12.3053 39.8632 12.4759 39.895 12.6367 39.9566C12.7885 40.0156 14.1676 40.5434 15.6226 40.9503C16.832 41.2878 19.3482 41.7941 21.3198 41.7941C26.912 41.7941 32.1339 39.6284 36.0226 35.6947C39.8776 31.7909 42.0001 26.6019 42.0001 21.0772C42.0006 19.659 41.8504 18.2448 41.552 16.8584C40.5826 12.3003 38.012 8.14906 34.3126 5.1725ZM12.0001 24.5C11.4068 24.5 10.8267 24.3241 10.3334 23.9944C9.84004 23.6648 9.45552 23.1962 9.22846 22.6481C9.0014 22.0999 8.94199 21.4967 9.05774 20.9147C9.1735 20.3328 9.45922 19.7982 9.87878 19.3787C10.2983 18.9591 10.8329 18.6734 11.4148 18.5576C11.9968 18.4419 12.6 18.5013 13.1481 18.7284C13.6963 18.9554 14.1649 19.3399 14.4945 19.8333C14.8242 20.3266 15.0001 20.9067 15.0001 21.5C15.0001 22.2957 14.684 23.0587 14.1214 23.6213C13.5588 24.1839 12.7957 24.5 12.0001 24.5ZM21.0001 24.5C20.4068 24.5 19.8267 24.3241 19.3334 23.9944C18.84 23.6648 18.4555 23.1962 18.2285 22.6481C18.0014 22.0999 17.942 21.4967 18.0577 20.9147C18.1735 20.3328 18.4592 19.7982 18.8788 19.3787C19.2983 18.9591 19.8329 18.6734 20.4148 18.5576C20.9968 18.4419 21.6 18.5013 22.1482 18.7284C22.6963 18.9554 23.1649 19.3399 23.4945 19.8333C23.8242 20.3266 24.0001 20.9067 24.0001 21.5C24.0001 22.2957 23.684 23.0587 23.1214 23.6213C22.5588 24.1839 21.7957 24.5 21.0001 24.5ZM30.0001 24.5C29.4068 24.5 28.8267 24.3241 28.3334 23.9944C27.84 23.6648 27.4555 23.1962 27.2285 22.6481C27.0014 22.0999 26.942 21.4967 27.0577 20.9147C27.1735 20.3328 27.4592 19.7982 27.8788 19.3787C28.2983 18.9591 28.8329 18.6734 29.4148 18.5576C29.9968 18.4419 30.6 18.5013 31.1482 18.7284C31.6963 18.9554 32.1649 19.3399 32.4945 19.8333C32.8242 20.3266 33.0001 20.9067 33.0001 21.5C33.0001 22.2957 32.684 23.0587 32.1214 23.6213C31.5588 24.1839 30.7957 24.5 30.0001 24.5Z" fill="white"/>
</svg>
