<svg width="45" height="27" viewBox="0 0 45 27" fill="none" xmlns="http://www.w3.org/2000/svg">
<path fill-rule="evenodd" clip-rule="evenodd" d="M43.9406 1.875C44.2744 0.8175 43.9406 0.0487497 42.4641 0.0487497H37.5544C36.3159 0.0487497 35.7441 0.721875 35.4103 1.44187C35.4103 1.44187 32.8847 7.59187 29.3578 11.5791C28.2141 12.7322 27.69 13.1166 27.0703 13.1166C26.7366 13.1166 26.3072 12.7322 26.3072 11.6756V1.82531C26.3072 0.576563 25.9266 0 24.8775 0H17.1562C16.3931 0 15.9169 0.576563 15.9169 1.15313C15.9169 2.35406 17.6803 2.64281 17.8706 6.00562V13.3125C17.8706 14.8978 17.5894 15.1875 16.965 15.1875C15.2972 15.1875 11.2463 8.98969 8.81625 1.9275C8.34375 0.52875 7.86375 0 6.62438 0H1.66781C0.238125 0 0 0.672188 0 1.39313C0 2.69063 1.66781 9.22406 7.76813 17.8716C11.8191 23.7778 17.5856 26.9522 22.7803 26.9522C25.9266 26.9522 26.3072 26.2312 26.3072 25.0303V20.5622C26.3072 19.1212 26.5931 18.8812 27.5944 18.8812C28.3088 18.8812 29.5959 19.2647 32.5031 22.0997C35.8388 25.4625 36.4106 27 38.2697 27H43.1784C44.6081 27 45.2756 26.2791 44.8941 24.8859C44.4656 23.4928 42.8447 21.4753 40.7475 19.0734C39.6038 17.7291 37.8881 16.2394 37.3641 15.5184C36.6497 14.5575 36.84 14.1731 37.3641 13.3088C37.3162 13.3088 43.3219 4.75688 43.9406 1.87125" fill="white"/>
</svg>
